<?xml version="1.0" encoding="UTF-8" standalone="no"?>
<svg
   xmlns:dc="http://purl.org/dc/elements/1.1/"
   xmlns:cc="http://creativecommons.org/ns#"
   xmlns:rdf="http://www.w3.org/1999/02/22-rdf-syntax-ns#"
   xmlns:svg="http://www.w3.org/2000/svg"
   xmlns="http://www.w3.org/2000/svg"
   viewBox="0 0 499.86667 376.64001"
   height="376.64001"
   width="499.86667"
   xml:space="preserve"
   id="svg2"
   version="1.1"><metadata
     id="metadata8"><rdf:RDF><cc:Work
         rdf:about=""><dc:format>image/svg+xml</dc:format><dc:type
           rdf:resource="http://purl.org/dc/dcmitype/StillImage" /></cc:Work></rdf:RDF></metadata><defs
     id="defs6" /><g
     transform="matrix(1.3333333,0,0,-1.3333333,0,376.64)"
     id="g10"><g
       transform="scale(0.1)"
       id="g12"><path
         id="path14"
         style="fill:none;stroke:#fad025;stroke-width:30;stroke-linecap:butt;stroke-linejoin:miter;stroke-miterlimit:10;stroke-dasharray:none;stroke-opacity:1"
         d="m 1437.18,2689.64 c 0,0 -1404.8362,200.04 -1416.8441,57.15 -12.00387,-142.89 0,-2411.911 0,-2411.911 0,0 -18.01168,-114.309 168.1021,-120.02 186.109,-5.711 1218.722,85.731 1410.842,-40.007 192.11,-125.7426 222.11,-154.3129 222.11,-154.3129 0,0 168.12,154.3129 240.16,154.3129 72.04,0 402.25,40.007 402.25,40.007 h 1182.7 c 0,0 108.06,57.153 84.05,171.469 -24.02,114.301 -54.03,2269.012 -54.03,2269.012 0,0 6,160.04 -162.1,154.32 -168.1,-5.71 -1699.01,-91.45 -1693.01,-480.1 6.01,-388.65 -0.02,-1874.65 -0.02,-1874.65" /><path
         id="path16"
         style="fill:none;stroke:#fad025;stroke-width:30;stroke-linecap:butt;stroke-linejoin:miter;stroke-miterlimit:10;stroke-dasharray:none;stroke-opacity:1"
         d="m 1563.26,1948.25 h 522.31" /><path
         id="path18"
         style="fill:none;stroke:#fad025;stroke-width:30;stroke-linecap:butt;stroke-linejoin:miter;stroke-miterlimit:10;stroke-dasharray:none;stroke-opacity:1"
         d="m 1563.26,1616.76 h 522.31" /><path
         id="path20"
         style="fill:none;stroke:#fad025;stroke-width:30;stroke-linecap:butt;stroke-linejoin:miter;stroke-miterlimit:10;stroke-dasharray:none;stroke-opacity:1"
         d="m 1563.26,988.051 h 522.31" /><path
         id="path22"
         style="fill:none;stroke:#fad025;stroke-width:30;stroke-linecap:butt;stroke-linejoin:miter;stroke-miterlimit:10;stroke-dasharray:none;stroke-opacity:1"
         d="m 1563.26,620.25 h 522.31" /></g></g></svg>