<svg width="81" height="104" viewBox="0 0 81 104" fill="none" xmlns="http://www.w3.org/2000/svg">
<path opacity="0.1" d="M53.5179 103.878C37.4143 103.878 19.575 102.911 0 100.977V81.392C21.3107 82.8427 37.2214 83.5681 47.7321 83.5681C49.95 83.5681 51.6857 82.9394 52.9393 81.6822C54.2893 80.3282 54.9643 78.539 54.9643 76.3146V70.5117C54.9643 64.7089 52.0714 61.8075 46.2857 61.8075H15.9107V41.4977H43.3929C49.1786 41.4977 52.0714 38.5962 52.0714 32.7934V29.892C52.0714 24.0892 49.1786 21.1878 43.3929 21.1878H1.44643V0.87793H50.625C60.075 0.87793 67.0179 3.05399 71.4536 7.4061C75.8893 11.6615 78.1071 18.1897 78.1071 26.9906C78.1071 32.7934 76.7571 37.5324 74.0571 41.2075C71.4536 44.7859 67.9821 47.3005 63.6428 48.7512C71.4536 50.8789 76.7571 56.1014 79.5536 64.4188C80.5179 67.4169 81 70.8986 81 74.8639V76.3146C81 85.7925 78.7821 92.7559 74.3464 97.2047C69.9107 101.654 62.9679 103.878 53.5179 103.878Z" fill="#333333"/>
</svg>
