<svg width="81" height="104" viewBox="0 0 81 104" fill="none" xmlns="http://www.w3.org/2000/svg">
<path opacity="0.1" d="M53.5179 103.878C37.4143 103.878 19.575 102.911 0 100.977V81.392C21.3107 82.8427 37.2214 83.5681 47.7321 83.5681C49.95 83.5681 51.6857 82.9394 52.9393 81.6822C54.2893 80.3282 54.9643 78.539 54.9643 76.3146V69.061C54.9643 63.2582 52.0714 60.3568 46.2857 60.3568H4.33929V0.87793H73.7679V21.1878H30.375V40.047H53.5179C62.9679 40.047 69.9107 42.223 74.3464 46.5751C78.7821 50.8305 81 57.3587 81 66.1596V76.3146C81 85.7925 78.7821 92.7559 74.3464 97.2047C69.9107 101.654 62.9679 103.878 53.5179 103.878Z" fill="#333333"/>
</svg>
