<?xml version="1.0" encoding="iso-8859-1"?>
<!-- Generator: Adobe Illustrator 16.0.0, SVG Export Plug-In . SVG Version: 6.00 Build 0)  -->
<!DOCTYPE svg PUBLIC "-//W3C//DTD SVG 1.1//EN" "http://www.w3.org/Graphics/SVG/1.1/DTD/svg11.dtd">
<svg  fill="#890089" version="1.1" id="Capa_1" xmlns="http://www.w3.org/2000/svg" xmlns:xlink="http://www.w3.org/1999/xlink" x="0px" y="0px"
	 width="31.955px" height="31.955px" viewBox="0 0 31.955 31.955" style="enable-background:new 0 0 31.955 31.955;"
	 xml:space="preserve">
<g>
	<g>
		<polygon points="30.222,19.674 28.731,19.674 13.307,19.674 11.815,19.674 10.388,19.674 10.388,21.148 11.815,21.148
			11.815,31.925 13.307,31.925 13.307,21.148 28.731,21.148 28.731,31.925 30.222,31.925 30.222,21.148 31.925,21.148
			31.925,19.674 		"/>
		<circle cx="5.742" cy="4.576" r="4.576"/>
		<path d="M9.729,21.839l-0.091-1.801h0.301l0.402-7.847l2.53-0.451c0.024,0.043,0.048,0.087,0.072,0.13
			c0.156,0.278,0.311,0.556,0.454,0.825c0.267,0.499,0.28,1.285,0.295,2.117c0.024,1.381,0.049,2.809,1.217,3.284
			c0.832,0.34,1.521,0.494,2.153,0.527v0.74h5.813v-2.797h-0.361v-0.73h-4.76v0.73h-0.692v1.817C16.46,18.35,15.803,18.198,15,17.87
			c-1.02-0.414-1.043-1.761-1.065-3.064c-0.015-0.861-0.029-1.676-0.322-2.226c-0.145-0.271-0.301-0.55-0.457-0.829
			c-0.011-0.019-0.022-0.039-0.032-0.059l3.386-0.604L15.334,5.12l-0.9,0.33c0.144-0.898,0.162-1.803,0.104-2.513
			C14.427,1.6,13.794,0.853,12.58,0.489c-0.091-0.027-0.198-0.025-0.26,0.062c-0.014,0.021-0.128,0.076-0.227,0.151
			c-0.03,0.013-0.059,0.033-0.084,0.067c-0.006,0.01-0.015,0.027-0.021,0.04c-0.004,0.003-0.007,0.006-0.008,0.008
			c-0.003,0.005-0.003,0.009-0.005,0.015c-0.201,0.416-0.573,2.126-0.218,2.349c0.159,0.101,0.209,0.153,0.386,0.157
			c0.698,0.023,0.695,0.492,0.586,1.137c-0.143,0.829-0.106,2.017-1.199,1.74c-0.076-0.02-0.154,0.025-0.203,0.079
			c-0.396,0.431-0.858,1.516-0.686,2.286c0.116,0.514,0.594,0.615,1.085,0.546c0.021,0.149,0.064,0.312,0.118,0.479L9.983,9.839
			H7.406l-1.744,2.023L3.974,9.839l-3.708,0.674L0.03,18.752h1.572l0.063,1.286h0.172l-0.009,1.767l-0.149,8.434H1.064v1.717h0.603
			h3.328h0.62v-1.717h-0.62l-0.01-8.641l1.548-0.017l-0.05,8.655H5.868v1.718H6.47H9.8h0.619v-1.718H9.8L9.729,21.839z
			 M11.966,9.081c0.275-0.069,0.539-0.178,0.723-0.295c0.417-0.265,0.748-0.647,1.01-1.096l0.369,1.64l-1.979,0.246
			C12.029,9.399,11.984,9.231,11.966,9.081z"/>
	</g>
</g>
<g>
</g>
<g>
</g>
<g>
</g>
<g>
</g>
<g>
</g>
<g>
</g>
<g>
</g>
<g>
</g>
<g>
</g>
<g>
</g>
<g>
</g>
<g>
</g>
<g>
</g>
<g>
</g>
<g>
</g>
</svg>
